<svg width="115" height="66" viewBox="0 0 115 66" fill="none" xmlns="http://www.w3.org/2000/svg">
<path d="M114.711 32.6129C114.711 42.0519 110.662 50.5653 104.341 56.5299C97.2727 63.2115 86.9749 65.2258 75.0101 65.2258H71V47.834H77.2679C81.4815 47.834 88.5829 47.6123 92.8556 43.3687C95.5859 40.6569 97.1939 36.8044 97.1939 32.6129C97.1939 28.4214 95.5794 24.5623 92.8556 21.8571C88.5829 17.6134 81.4749 17.3918 77.2679 17.3918H71V0H75.0101C86.9749 0 97.2727 2.01427 104.341 8.6959C110.655 14.667 114.711 23.1739 114.711 32.6129Z" fill="#0026FF"/>
<path d="M37.7978 0H0V17.457H37.7978V0Z" fill="#0026FF"/>
<path d="M37.7978 47.834H0V65.291H37.7978V47.834Z" fill="#0026FF"/>
</svg>
