<svg width="894" height="106" viewBox="0 0 894 106" fill="none" xmlns="http://www.w3.org/2000/svg">
<g clip-path="url(#clip0_238_9136)">
<path d="M144.253 26.3159H126.592V103.81H144.253V26.3159Z" fill="#FFFCEB"/>
<path d="M185.386 41.9606V80.4142C185.386 88.7255 196.668 88.1127 201.433 88.1127V103.81H192.008C174.491 103.81 167.717 97.6691 167.717 81.2942V41.9671H154.913V26.3223H167.717V1.45361H185.386V26.3223H201.433V41.9671H185.386V41.9606Z" fill="#FFFCEB"/>
<path d="M285.416 65.0627C285.416 40.7937 300.282 24.1255 321.776 24.1255C343.271 24.1255 357.841 40.357 357.841 64.1892V70.1799H303.229C303.819 82.461 310.881 90.7919 322.072 90.7919C330.755 90.7919 336.649 87.1349 342.536 78.074L355.492 87.4282C348.423 99.7094 336.944 105.993 322.078 105.993C300.288 105.993 285.423 89.4751 285.423 65.0562M340.331 57.3055C339.74 46.4845 332.967 39.3205 321.927 39.3205C311.623 39.3205 303.97 47.0712 303.38 57.3055H340.331Z" fill="#FFFCEB"/>
<path d="M546.063 26.3158V103.81H529.136V98.2558H528.841C524.279 103.08 517.066 106.007 508.823 106.007C488.358 106.007 473.493 89.4882 473.493 65.0693C473.493 40.6504 488.358 24.1321 508.823 24.1321C517.066 24.1321 524.279 27.059 528.841 31.8828H529.136V26.3289H546.063V26.3158ZM528.401 73.1003V57.0187C528.401 47.3646 521.188 40.2071 510.588 40.2071C498.663 40.2071 491.154 49.268 491.154 65.0628C491.154 80.8575 498.663 89.9184 510.588 89.9184C521.188 89.9184 528.401 82.7544 528.401 73.1068" fill="#FFFCEB"/>
<path d="M558.552 26.2571H575.479V33.1278H575.774C580.336 27.5739 588.874 24.0603 597.269 24.0603C614.786 24.0603 626.416 35.7548 626.416 54.0331V103.744H608.755V56.8101C608.755 46.4324 602.867 40.4352 592.707 40.4352C582.547 40.4352 576.221 46.8691 576.221 56.8101V103.744H558.559V26.2571H558.552Z" fill="#FFFCEB"/>
<path d="M837.812 26.2572V103.751H820.885V98.1972H820.59C816.029 103.021 808.816 105.948 800.572 105.948C780.108 105.948 765.242 89.4296 765.242 65.0107C765.242 40.5918 780.108 24.0735 800.572 24.0735C808.816 24.0735 816.029 27.0004 820.59 31.8242H820.885V26.2703H837.812V26.2572ZM820.15 73.0417V56.9601C820.15 47.306 812.937 40.1485 802.338 40.1485C790.412 40.1485 782.904 49.2095 782.904 65.0042C782.904 80.7989 790.412 89.8599 802.338 89.8599C812.937 89.8599 820.15 82.6958 820.15 73.0482" fill="#FFFCEB"/>
<path d="M91.2227 26.3159H73.561V103.81H91.2227V26.3159Z" fill="#FFFCEB"/>
<path d="M117.791 34.2426C117.791 39.9073 113.17 44.4965 107.467 44.4965C101.763 44.4965 97.1426 39.9073 97.1426 34.2426C97.1426 28.5779 101.763 23.9888 107.467 23.9888C113.17 23.9888 117.791 28.5779 117.791 34.2426Z" fill="#FFFCEB"/>
<path d="M867.439 26.2571H849.771V103.751H867.439V26.2571Z" fill="#FFFCEB"/>
<path d="M894 34.1838C894 39.8485 889.379 44.4377 883.676 44.4377C877.973 44.4377 873.352 39.8485 873.352 34.1838C873.352 28.5191 877.973 23.9299 883.676 23.9299C889.379 23.9299 894 28.5191 894 34.1838Z" fill="#FFFCEB"/>
<path d="M894 34.1838C894 39.8485 889.379 44.4377 883.676 44.4377C877.973 44.4377 873.352 39.8485 873.352 34.1838C873.352 28.5191 877.973 23.9299 883.676 23.9299C889.379 23.9299 894 28.5191 894 34.1838Z" fill="#FFFCEB"/>
<path d="M17.6683 1.52539H0V103.712H17.6683V1.52539Z" fill="#FFFCEB"/>
<path d="M63.7162 1.52539H25.9185V18.9824H63.7162V1.52539Z" fill="#FFFCEB"/>
<path d="M63.7162 49.3594H25.9185V66.8164H63.7162V49.3594Z" fill="#FFFCEB"/>
<path d="M469.056 34.1383C469.056 43.5773 465.006 52.0907 458.686 58.0552C451.617 64.7369 441.32 66.7512 429.355 66.7512H425.345V49.3594H431.613C435.826 49.3594 442.928 49.1377 447.2 44.8941C449.931 42.1823 451.539 38.3298 451.539 34.1383C451.539 29.9468 449.924 26.0877 447.2 23.3825C442.928 19.1388 435.82 18.9172 431.613 18.9172H425.345V1.52539H429.355C441.32 1.52539 451.617 3.53966 458.686 10.2213C465 16.1924 469.056 24.6992 469.056 34.1383Z" fill="#FFFCEB"/>
<path d="M714.344 87.4217L714.41 87.3565L757.478 40.6373V26.4983H692.009V41.9475H733.817V42.5798L690.69 89.3643V103.503H759.092V88.0475H714.344V87.4217Z" fill="#FFFCEB"/>
<path d="M235.437 87.4871L235.503 87.4154L278.564 40.7026V26.3159H213.102V41.9412H254.91V42.6387L211.783 89.4296V103.569H280.185V88.1129H235.437V87.4871Z" fill="#FFFCEB"/>
<path d="M663.801 41.9019V80.3555C663.801 88.6668 675.083 88.054 679.848 88.054V103.751H670.429C652.912 103.751 646.139 97.6104 646.139 81.2355V41.9084H633.334V26.2636H646.139V1.3623H663.801V26.2571H679.848V41.9019H663.801Z" fill="#FFFCEB"/>
<path d="M385.991 1.45361H368.33V103.881H385.991V1.45361Z" fill="#FFFCEB"/>
<path d="M414.502 1.45361H396.84V103.881H414.502V1.45361Z" fill="#FFFCEB"/>
</g>
<defs>
<clipPath id="clip0_238_9136">
<rect width="894" height="106" fill="white"/>
</clipPath>
</defs>
</svg>
