
<svg width="894px" height="104.6px" viewBox="0 0 894 104.6" version="1.1" xmlns="http://www.w3.org/2000/svg" xmlns:xlink="http://www.w3.org/1999/xlink">
    <g id="Page-1" stroke="none" stroke-width="1" fill="none" fill-rule="evenodd">
        <g id="Group" fill="#FFFCEB" fill-rule="nonzero">
            <path d="M185.4,40.6 L185.4,79.1 C185.4,87.4 196.7,86.8 201.4,86.8 L201.4,102.5 L192,102.5 C174.5,102.5 167.7,96.4 167.7,80 L167.7,40.7 L154.9,40.7 L154.9,25.1 L167.7,25.1 L167.7,0.1 L185.4,0.1 L185.4,25 L201.4,25 L201.4,40.6 L185.4,40.6 L185.4,40.6 Z" id="Path"></path>
            <path d="M285.4,61.7 C285.4,37.4 300.3,20.8 321.8,20.8 C343.3,20.8 357.9,37 357.9,60.9 L357.9,66.9 L303.3,66.9 C303.9,79.2 311,87.5 322.1,87.5 C333.2,87.5 336.7,83.8 342.6,74.8 L355.6,84.2 C348.5,96.5 337.1,102.8 322.2,102.8 C300.4,102.8 285.5,86.3 285.5,61.9 M340.3,53.9 C339.7,43.1 332.9,35.9 321.9,35.9 C310.9,35.9 303.9,43.7 303.4,53.9 L340.4,53.9 L340.3,53.9 Z" id="Shape"></path>
            <path d="M546.1,24.9 L546.1,102.4 L529.2,102.4 L529.2,96.8 L528.9,96.8 C524.3,101.6 517.1,104.6 508.9,104.6 C488.4,104.6 473.6,88.1 473.6,63.7 C473.6,39.3 488.5,22.8 508.9,22.8 C529.3,22.8 524.4,25.7 528.9,30.6 L529.2,30.6 L529.2,25 L546.1,25 L546.1,24.9 Z M528.4,71.7 L528.4,55.6 C528.4,45.9 521.2,38.8 510.6,38.8 C500,38.8 491.2,47.9 491.2,63.7 C491.2,79.5 498.7,88.6 510.6,88.6 C522.5,88.6 528.4,81.4 528.4,71.8" id="Shape"></path>
            <path d="M558.6,24.9 L575.5,24.9 L575.5,31.8 L575.8,31.8 C580.4,26.2 588.9,22.7 597.3,22.7 C614.8,22.7 626.4,34.4 626.4,52.7 L626.4,102.4 L608.7,102.4 L608.7,55.5 C608.7,45.1 602.8,39.1 592.7,39.1 C582.6,39.1 576.2,45.5 576.2,55.5 L576.2,102.4 L558.5,102.4 L558.5,24.9 L558.5,24.9 L558.6,24.9 Z" id="Path"></path>
            <path d="M837.8,22.9 L837.8,100.4 L820.9,100.4 L820.9,94.8 L820.6,94.8 C816,99.6 808.8,102.6 800.6,102.6 C780.1,102.6 765.3,86.1 765.3,61.7 C765.3,37.3 780.2,20.8 800.6,20.8 C821,20.8 816.1,23.7 820.6,28.6 L820.9,28.6 L820.9,23 L837.8,23 L837.8,22.9 Z M820.2,69.6 L820.2,53.5 C820.2,43.8 813,36.7 802.4,36.7 C791.8,36.7 783,45.8 783,61.6 C783,77.4 790.5,86.5 802.4,86.5 C814.3,86.5 820.2,79.3 820.2,69.7" id="Shape"></path>
            <polygon id="Path" points="91.2 24.9 73.5 24.9 73.5 102.4 91.2 102.4"></polygon>
            <polygon id="Path" points="144.5 24.9 126.8 24.9 126.8 102.4 144.5 102.4"></polygon>
            <path d="M117.8,32.8 C117.8,38.5 113.2,43.1 107.5,43.1 C101.8,43.1 97.2,38.5 97.2,32.8 C97.2,27.1 101.8,22.5 107.5,22.5 C113.2,22.5 117.8,27.1 117.8,32.8 Z" id="Path"></path>
            <polygon id="Path" points="867.4 24.9 849.7 24.9 849.7 102.4 867.4 102.4"></polygon>
            <path d="M894,32.8 C894,38.5 889.4,43.1 883.7,43.1 C878,43.1 873.4,38.5 873.4,32.8 C873.4,27.1 878,22.5 883.7,22.5 C889.4,22.5 894,27.1 894,32.8 Z" id="Path"></path>
            <path d="M894,32.8 C894,38.5 889.4,43.1 883.7,43.1 C878,43.1 873.4,38.5 873.4,32.8 C873.4,27.1 878,22.5 883.7,22.5 C889.4,22.5 894,27.1 894,32.8 Z" id="Path"></path>
            <polygon id="Path" points="17.7 0.1 2.30926389e-14 0.1 2.30926389e-14 102.3 17.7 102.3"></polygon>
            <path d="M714.3,86 L714.3,86 C714.3,86 757.4,39.2 757.4,39.2 L757.4,25.1 L691.9,25.1 L691.9,40.5 L733.7,40.5 L733.7,41.1 L690.6,87.9 L690.6,102 L759,102 L759,86.5 L714.3,86.5 L714.3,85.9 L714.3,86 Z" id="Path"></path>
            <path d="M235.4,86.1 L235.4,86.1 C235.4,86.1 278.5,39.3 278.5,39.3 L278.5,24.9 L213,24.9 L213,40.5 L254.8,40.5 L254.8,41.2 L211.7,88 L211.7,102.1 L280.1,102.1 L280.1,86.6 L235.4,86.6 L235.4,86 L235.4,86.1 Z" id="Path"></path>
            <path d="M663.8,40.5 L663.8,79 C663.8,87.3 675.1,86.7 679.8,86.7 L679.8,102.4 L670.4,102.4 C652.9,102.4 646.1,96.3 646.1,79.9 L646.1,40.6 L633.3,40.6 L633.3,25 L646.1,25 L646.1,0 L663.8,0 L663.8,24.9 L679.8,24.9 L679.8,40.5 L663.8,40.5 L663.8,40.5 Z" id="Path"></path>
            <polygon id="Path" points="386 0.1 368.3 0.1 368.3 102.5 386 102.5"></polygon>
            <polygon id="Path" points="414.5 0.1 396.8 0.1 396.8 102.5 414.5 102.5"></polygon>
        </g>
    </g>
</svg>