<svg width="65px" height="65px" viewBox="0 0 65 65" version="1.1" xmlns="http://www.w3.org/2000/svg" xmlns:xlink="http://www.w3.org/1999/xlink">
    <g id="Page-1" stroke="none" stroke-width="1" fill="none" fill-rule="evenodd">
        <rect id="Rectangle" x="0" y="0" width="65" height="65"></rect>
        <g id="logo-p" transform="translate(11, 0)" fill="#FFFCEC" fill-rule="nonzero">
            <path d="M44,32.5 C44,41.8711656 39.97254,50.4447853 33.5286041,56.3266871 C26.3798627,63.006135 16.0091533,65 4.02745995,65 L0,65 L0,47.6533742 L6.34324943,47.6533742 C10.5720824,47.6533742 17.7208238,47.4539877 22.0503432,43.1671779 C24.7688787,40.4754601 26.3798627,36.5874233 26.3798627,32.4003067 C26.3798627,28.2131902 24.7688787,24.3251534 22.0503432,21.6334356 C17.7208238,17.446319 10.5720824,17.1472393 6.34324943,17.1472393 L0,17.1472393 L0,0 L4.02745995,0 C16.1098398,0 26.4805492,1.99386503 33.5286041,8.67331288 C39.8718535,14.654908 44,23.1288344 44,32.5 Z" id="Path"></path>
        </g>
    </g>
</svg>