<?xml version="1.0" encoding="UTF-8"?>
<svg id="Layer_1" data-name="Layer 1" xmlns="http://www.w3.org/2000/svg" xmlns:xlink="http://www.w3.org/1999/xlink" version="1.1" viewBox="0 0 894 106">
  <defs>
    <style>
      .cls-1 {
        clip-path: url(#clippath);
      }

      .cls-2 {
        fill: none;
      }

      .cls-2, .cls-3 {
        stroke-width: 0px;
      }

      .cls-3 {
        fill: #fffceb;
      }
    </style>
    <clipPath id="clippath">
      <rect class="cls-2" y="0" width="894" height="106"/>
    </clipPath>
  </defs>
  <g class="cls-1">
    <g>
      <path class="cls-2" d="M0,106"/>
      <path class="cls-3" d="M185.4,42v38.5c0,8.3,11.3,7.7,16,7.7v15.7h-9.4c-17.5,0-24.3-6.1-24.3-22.5v-39.3h-12.8v-15.6h12.8V1.5h17.7v24.9h16v15.6h-16Z"/>
      <path class="cls-3" d="M285.4,65.1c0-24.3,14.9-40.9,36.4-40.9s36.1,16.2,36.1,40.1v6h-54.6c.6,12.3,7.7,20.6,18.8,20.6s14.6-3.7,20.5-12.7l13,9.4c-7.1,12.3-18.5,18.6-33.4,18.6-21.8,0-36.7-16.5-36.7-40.9M340.3,57.3c-.6-10.8-7.4-18-18.4-18s-18,7.8-18.5,18h37Z"/>
      <path class="cls-3" d="M546.1,26.3v77.5h-16.9v-5.6h-.3c-4.6,4.8-11.8,7.8-20,7.8-20.5,0-35.3-16.5-35.3-40.9s14.9-40.9,35.3-40.9,15.5,2.9,20,7.8h.3v-5.6h16.9ZM528.4,73.1v-16.1c0-9.7-7.2-16.8-17.8-16.8s-19.4,9.1-19.4,24.9,7.5,24.9,19.4,24.9,17.8-7.2,17.8-16.8"/>
      <path class="cls-3" d="M558.6,26.3h16.9v6.9h.3c4.6-5.6,13.1-9.1,21.5-9.1,17.5,0,29.1,11.7,29.1,30v49.7h-17.7v-46.9c0-10.4-5.9-16.4-16-16.4s-16.5,6.4-16.5,16.4v46.9h-17.7V26.3h0Z"/>
      <path class="cls-3" d="M837.8,26.3v77.5h-16.9v-5.6h-.3c-4.6,4.8-11.8,7.8-20,7.8-20.5,0-35.3-16.5-35.3-40.9s14.9-40.9,35.3-40.9,15.5,2.9,20,7.8h.3v-5.6h16.9ZM820.2,73v-16.1c0-9.7-7.2-16.8-17.8-16.8s-19.4,9.1-19.4,24.9,7.5,24.9,19.4,24.9,17.8-7.2,17.8-16.8"/>
      <path class="cls-3" d="M91.2,26.3h-17.7v77.5h17.7V26.3Z"/>
      <path class="cls-3" d="M145.8,10.3c0,5.7-4.6,10.3-10.3,10.3s-10.3-4.6-10.3-10.3S129.7,0,135.4,0s10.3,4.6,10.3,10.3Z"/>
      <path class="cls-3" d="M117.8,34.2c0,5.7-4.6,10.3-10.3,10.3s-10.3-4.6-10.3-10.3,4.6-10.3,10.3-10.3,10.3,4.6,10.3,10.3Z"/>
      <path class="cls-3" d="M867.4,26.3h-17.7v77.5h17.7V26.3Z"/>
      <path class="cls-3" d="M894,34.2c0,5.7-4.6,10.3-10.3,10.3s-10.3-4.6-10.3-10.3,4.6-10.3,10.3-10.3,10.3,4.6,10.3,10.3Z"/>
      <path class="cls-3" d="M894,34.2c0,5.7-4.6,10.3-10.3,10.3s-10.3-4.6-10.3-10.3,4.6-10.3,10.3-10.3,10.3,4.6,10.3,10.3Z"/>
      <path class="cls-3" d="M17.7,1.5H0v102.2h17.7V1.5Z"/>
      <path class="cls-3" d="M714.3,87.4h0c0,0,43.1-46.8,43.1-46.8v-14.1h-65.5v15.4h41.8v.6l-43.1,46.8v14.1h68.4v-15.5h-44.7v-.6Z"/>
      <path class="cls-3" d="M235.4,87.5h0c0,0,43.1-46.8,43.1-46.8v-14.4h-65.5v15.6h41.8v.7l-43.1,46.8v14.1h68.4v-15.5h-44.7v-.6Z"/>
      <path class="cls-3" d="M663.8,41.9v38.5c0,8.3,11.3,7.7,16,7.7v15.7h-9.4c-17.5,0-24.3-6.1-24.3-22.5v-39.3h-12.8v-15.6h12.8V1.4h17.7v24.9h16v15.6h-16Z"/>
      <path class="cls-3" d="M386,1.5h-17.7v102.4h17.7V1.5Z"/>
      <path class="cls-3" d="M414.5,1.5h-17.7v102.4h17.7V1.5Z"/>
    </g>
  </g>
</svg>